<svg xmlns="http://www.w3.org/2000/svg" version="1.1" viewBox="0 0 64 80" x="0px" y="0px"><title>qr-code</title><path d="M2 0c-1.104 0-2 0.896-2 2v24c0 1.104 0.896 2 2 2h24c1.104 0 2-0.896 2-2v-24c0-1.104-0.896-2-2-2h-24zM38 0c-1.104 0-2 0.896-2 2v24c0 1.104 0.896 2 2 2h24c1.104 0 2-0.896 2-2v-24c0-1.104-0.896-2-2-2h-24zM4 4h20v20h-20v-20zM40 4h20v20h-20v-20zM8 8v12h12v-12h-12zM44 8v12h12v-12h-12zM2 36c-1.104 0-2 0.896-2 2v24c0 1.104 0.896 2 2 2h24c1.104 0 2-0.896 2-2v-24c0-1.104-0.896-2-2-2h-24zM38 36c-1.104 0-2 0.896-2 2v10h4v-8h8v-4h-10zM54 36c-1.104 0-2 0.896-2 2v10h4v-8h8v-4h-10zM4 40h20v20h-20v-20zM8 44v12h12v-12h-12zM44 48v4h-2c-1.104 0-2 0.896-2 2v10h4v-8h4v8h4v-10c0-1.104-0.896-2-2-2h-2v-4h-4zM60 48v16h4v-16h-4z"/><text x="0" y="79" fill="#000000" font-size="5px" font-weight="bold" font-family="'Helvetica Neue', Helvetica, Arial-Unicode, Arial, Sans-serif">Created by scott desmond</text><text x="0" y="84" fill="#000000" font-size="5px" font-weight="bold" font-family="'Helvetica Neue', Helvetica, Arial-Unicode, Arial, Sans-serif">from the Noun Project</text></svg>