<svg xmlns="http://www.w3.org/2000/svg" xmlns:xlink="http://www.w3.org/1999/xlink" version="1.1" x="0px" y="0px" viewBox="0 0 48 60" enable-background="new 0 0 48 48" xml:space="preserve"><path d="M40,34.004c-0.276,0-0.5,0.224-0.5,0.5V39.5h-4.996c-0.275,0-0.5,0.224-0.5,0.5c0,0.275,0.225,0.5,0.5,0.5H40  c0.275,0,0.5-0.225,0.5-0.5v-5.496C40.5,34.227,40.275,34.004,40,34.004z"/><path d="M8,40.5h5.496c0.276,0,0.5-0.225,0.5-0.5c0-0.276-0.224-0.5-0.5-0.5H8.5v-4.996c0-0.276-0.224-0.5-0.5-0.5  c-0.276,0-0.5,0.224-0.5,0.5V40C7.5,40.275,7.723,40.5,8,40.5z"/><path d="M8,13.996c0.276,0,0.5-0.225,0.5-0.5V8.5h4.996c0.276,0,0.5-0.224,0.5-0.5s-0.224-0.5-0.5-0.5H8C7.724,7.5,7.5,7.724,7.5,8  v5.496C7.5,13.771,7.723,13.996,8,13.996z"/><path d="M34.504,8.5H39.5v4.996c0,0.275,0.224,0.5,0.5,0.5c0.275,0,0.5-0.225,0.5-0.5V8c0-0.276-0.225-0.5-0.5-0.5h-5.496  c-0.275,0-0.5,0.224-0.5,0.5S34.227,8.5,34.504,8.5z"/><path d="M19.5,12.7h-5.4c-0.771,0-1.399,0.628-1.399,1.399v5.4c0,0.771,0.628,1.4,1.399,1.4h5.4c0.771,0,1.399-0.629,1.399-1.4v-5.4  C20.899,13.328,20.271,12.7,19.5,12.7z M19.899,19.5c0,0.221-0.179,0.4-0.399,0.4h-5.4c-0.221,0-0.399-0.18-0.399-0.4v-5.4  c0-0.221,0.179-0.399,0.399-0.399h5.4c0.221,0,0.399,0.18,0.399,0.399V19.5z"/><path d="M28.5,20.9h5.398c0.772,0,1.4-0.629,1.4-1.4v-5.4c0-0.771-0.628-1.399-1.4-1.399H28.5c-0.771,0-1.4,0.628-1.4,1.399v5.4  C27.099,20.271,27.727,20.9,28.5,20.9z M28.099,14.1c0-0.221,0.181-0.399,0.4-0.399h5.399c0.221,0,0.399,0.18,0.399,0.399v5.4  c0,0.221-0.181,0.4-0.399,0.4h-5.399c-0.222,0-0.4-0.18-0.4-0.4V14.1z"/><path d="M19.5,27.1h-5.4c-0.771,0-1.399,0.628-1.399,1.4v5.4c0,0.771,0.628,1.399,1.399,1.399h5.4c0.771,0,1.399-0.628,1.399-1.399  v-5.4C20.899,27.728,20.271,27.1,19.5,27.1z M19.899,33.9c0,0.221-0.179,0.399-0.399,0.399h-5.4c-0.221,0-0.399-0.179-0.399-0.399  v-5.4c0-0.221,0.179-0.4,0.399-0.4h5.4c0.221,0,0.399,0.18,0.399,0.4V33.9z"/><path d="M29.849,27.1c-0.524,0-0.95,0.426-0.95,0.95v2.7c0,0.522,0.426,0.949,0.95,0.949h2.7c0.523,0,0.95-0.426,0.95-0.949v-2.7  c0-0.522-0.427-0.95-0.95-0.95H29.849z M32.5,30.699l-2.602,0.049l-0.05-2.649l2.65-0.05L32.5,30.699L32.5,30.699z"/><text x="0" y="63" fill="#000000" font-size="5px" font-weight="bold" font-family="'Helvetica Neue', Helvetica, Arial-Unicode, Arial, Sans-serif">Created by Kieu Thi Kim Cuong</text><text x="0" y="68" fill="#000000" font-size="5px" font-weight="bold" font-family="'Helvetica Neue', Helvetica, Arial-Unicode, Arial, Sans-serif">from the Noun Project</text></svg>